name GIL11_static.mot
datacolumns 141
datarows 4
range 0.43333334 0.45833334
endheader

                time	           pelvis_tx	           pelvis_ty	           pelvis_tz	         pelvis_tilt	         pelvis_list	     pelvis_rotation	       hip_flexion_r	     hip_adduction_r	      hip_rotation_r	        knee_angle_r	       ankle_angle_r	    subtalar_angle_r	         mtp_angle_r	       hip_flexion_l	     hip_adduction_l	      hip_rotation_l	        knee_angle_l	       ankle_angle_l	    subtalar_angle_l	         mtp_angle_l	    lumbar_extension	      lumbar_bending	     lumbar_rotation	    ground_marker_px	    ground_marker_py	    ground_marker_pz	    ground_marker_px	    ground_marker_py	    ground_marker_pz	    ground_marker_px	    ground_marker_py	    ground_marker_pz	    ground_marker_px	    ground_marker_py	    ground_marker_pz	    ground_marker_px	    ground_marker_py	    ground_marker_pz	    ground_marker_px	    ground_marker_py	    ground_marker_pz	    ground_marker_px	    ground_marker_py	    ground_marker_pz	    ground_marker_px	    ground_marker_py	    ground_marker_pz	    ground_marker_px	    ground_marker_py	    ground_marker_pz	    ground_marker_px	    ground_marker_py	    ground_marker_pz	    ground_marker_px	    ground_marker_py	    ground_marker_pz	    ground_marker_px	    ground_marker_py	    ground_marker_pz	    ground_marker_px	    ground_marker_py	    ground_marker_pz	    ground_marker_px	    ground_marker_py	    ground_marker_pz	    ground_marker_px	    ground_marker_py	    ground_marker_pz	    ground_marker_px	    ground_marker_py	    ground_marker_pz	    ground_marker_px	    ground_marker_py	    ground_marker_pz	    ground_marker_px	    ground_marker_py	    ground_marker_pz	    ground_marker_px	    ground_marker_py	    ground_marker_pz	    ground_marker_px	    ground_marker_py	    ground_marker_pz	    ground_marker_px	    ground_marker_py	    ground_marker_pz	    ground_marker_px	    ground_marker_py	    ground_marker_pz	    ground_marker_px	    ground_marker_py	    ground_marker_pz	    ground_marker_px	    ground_marker_py	    ground_marker_pz	    ground_marker_px	    ground_marker_py	    ground_marker_pz	    ground_marker_px	    ground_marker_py	    ground_marker_pz	    ground_marker_px	    ground_marker_py	    ground_marker_pz	    ground_marker_px	    ground_marker_py	    ground_marker_pz	    ground_marker_px	    ground_marker_py	    ground_marker_pz	    ground_marker_px	    ground_marker_py	    ground_marker_pz	    ground_marker_px	    ground_marker_py	    ground_marker_pz	    ground_marker_px	    ground_marker_py	    ground_marker_pz	    ground_marker_px	    ground_marker_py	    ground_marker_pz	    ground_marker_px	    ground_marker_py	    ground_marker_pz	    ground_marker_px	    ground_marker_py	    ground_marker_pz	    ground_marker_px	    ground_marker_py	    ground_marker_pz	    ground_marker_px	    ground_marker_py	    ground_marker_pz	    ground_marker_px	    ground_marker_py	    ground_marker_pz	    ground_marker_px	    ground_marker_py	    ground_marker_pz	
          0.43333334	          1.51966023	          0.88163882	         -0.27090237	         -7.41350937	          1.08658564	          1.19747198	          8.00953674	         -6.83508348	          1.72297955	         -3.14477682	          1.66146326	          0.00000000	          0.00000000	          8.82197952	         -4.73311996	          5.70856571	         -6.05611944	          1.79964519	          0.00000000	          0.00000000	          4.53630447	         -2.89936042	          2.29538202	          1.42963481	          0.82080209	         -0.26763058	          1.42694712	          0.81069708	         -0.19536775	          1.41991055	          0.81459433	         -0.34728253	          1.43144047	          0.43654603	         -0.15997270	          1.42878544	          0.43793476	         -0.38803920	          1.41533089	          0.06478016	         -0.12611324	          1.39753151	          0.06760381	         -0.42281070	          1.51966023	          0.88163882	         -0.27090237	          1.52123821	          0.87871706	         -0.15326603	          1.51808226	          0.88456059	         -0.38853869	          1.32672310	          0.95106775	         -0.23286669	          1.32382774	          0.94880253	         -0.28816488	          1.43396819	          0.44222191	         -0.10029528	          1.43383217	          0.44448403	         -0.44746679	          1.43122566	          0.43615982	         -0.21845502	          1.43589747	          0.44229481	         -0.32332557	          1.39588630	          0.06899159	         -0.08912441	          1.38306308	          0.07249837	         -0.46193498	          1.43029523	          0.06761410	         -0.15623777	          1.40161431	          0.07672787	         -0.39402080	          1.37602699	          0.03357549	         -0.15753195	          1.34673882	          0.04737185	         -0.41187045	          1.51688814	          1.32124519	         -0.26744926	          1.55932307	          1.25343275	         -0.27201325	          1.39642644	          1.38142109	         -0.25828591	          1.52321541	          1.32590902	         -0.21514292	          1.51730251	          1.32335544	         -0.32136568	          1.50847030	          0.04067657	         -0.06749330	          1.50096750	          0.04371248	         -0.45742401	          1.58988905	          0.57627338	         -0.18457241	          1.46566951	          0.58148468	         -0.51957893	          1.52357101	          0.63057840	         -0.13488628	          1.40594685	          0.62774497	         -0.45594922	          1.50991285	          0.54385120	         -0.12773654	          1.41395259	          0.53925765	         -0.45084792	          1.38265944	          0.15163189	         -0.02892788	          1.49447262	          0.18687628	         -0.40663397	          1.39087331	          0.15720767	         -0.07245902	          1.45351696	          0.18745403	         -0.41480613	
          0.44166666	          1.51943731	          0.88155401	         -0.27090386	         -7.43069077	          1.02270246	          1.22058678	          8.04181099	         -6.76567364	          1.68634450	         -3.15317988	          1.65089190	          0.00000000	          0.00000000	          8.88034630	         -4.80480289	          5.76593113	         -6.08874369	          1.77372932	          0.00000000	          0.00000000	          4.52661324	         -2.97725773	          2.25386214	          1.42948508	          0.82078087	         -0.26778787	          1.42676044	          0.81070876	         -0.19523458	          1.41961074	          0.81446862	         -0.34714755	          1.43137455	          0.43660873	         -0.15996151	          1.42871892	          0.43795323	         -0.38802841	          1.41533172	          0.06476717	         -0.12611856	          1.39747775	          0.06763127	         -0.42287123	          1.51943731	          0.88155401	         -0.27090386	          1.52110267	          0.87874001	         -0.15327914	          1.51777208	          0.88436806	         -0.38852856	          1.32657123	          0.95101523	         -0.23296885	          1.32367253	          0.94879395	         -0.28815800	          1.43390727	          0.44226697	         -0.10028262	          1.43377578	          0.44452763	         -0.44745237	          1.43158913	          0.43597412	         -0.21826249	          1.43592417	          0.44223410	         -0.32347295	          1.39589107	          0.06897268	         -0.08912697	          1.38301766	          0.07253248	         -0.46199775	          1.43022346	          0.06762972	         -0.15627609	          1.40186250	          0.07655706	         -0.39415067	          1.37605178	          0.03358616	         -0.15757193	          1.34661937	          0.04744783	         -0.41187373	          1.51679277	          1.32125890	         -0.26747078	          1.55919886	          1.25341821	         -0.27188200	          1.39646816	          1.38145173	         -0.25851482	          1.52312517	          1.32604003	         -0.21520479	          1.51720476	          1.32324529	         -0.32136306	          1.50846243	          0.04068105	         -0.06749858	          1.50095952	          0.04372306	         -0.45742497	          1.58987808	          0.57627457	         -0.18456127	          1.46565926	          0.58157533	         -0.51957631	          1.52351427	          0.63067478	         -0.13492274	          1.40584230	          0.62776893	         -0.45596176	          1.51007152	          0.54395086	         -0.12768808	          1.41395116	          0.53926885	         -0.45092824	          1.38266945	          0.15163043	         -0.02893378	          1.49440336	          0.18712442	         -0.40674138	          1.39082646	          0.15722187	         -0.07246184	          1.45350969	          0.18743439	         -0.41477951	
          0.44999999	          1.51921153	          0.88144028	         -0.27087981	         -7.45702744	          0.95316881	          1.24739957	          8.08805656	         -6.68556643	          1.62753510	         -3.17462969	          1.64472473	          0.00000000	          0.00000000	          8.95108032	         -4.88945675	          5.82951689	         -6.11451101	          1.78525138	          0.00000000	          0.00000000	          4.51153421	         -2.94184542	          2.18114281	          1.42920303	          0.82066739	         -0.26807278	          1.42656660	          0.81071174	         -0.19506223	          1.41929018	          0.81432474	         -0.34697276	          1.43133485	          0.43667269	         -0.15995760	          1.42864883	          0.43789545	         -0.38804573	          1.41531074	          0.06477373	         -0.12611270	          1.39747989	          0.06766944	         -0.42290598	          1.51921153	          0.88144028	         -0.27087981	          1.52097452	          0.87874258	         -0.15328826	          1.51744866	          0.88413799	         -0.38847136	          1.32645178	          0.95096654	         -0.23306261	          1.32348287	          0.94879466	         -0.28815562	          1.43385434	          0.44230613	         -0.10027581	          1.43371618	          0.44450477	         -0.44746491	          1.43177521	          0.43574187	         -0.21773951	          1.43538189	          0.44212011	         -0.32368246	          1.39586282	          0.06897778	         -0.08912487	          1.38302577	          0.07257065	         -0.46203473	          1.43010509	          0.06768770	         -0.15632401	          1.40295863	          0.07597346	         -0.39437851	          1.37608111	          0.03359130	         -0.15762505	          1.34668577	          0.04740836	         -0.41189879	          1.51660168	          1.32128084	         -0.26740986	          1.55896306	          1.25340915	         -0.27177313	          1.39637375	          1.38152719	         -0.25864920	          1.52291644	          1.32608116	         -0.21510302	          1.51703668	          1.32324266	         -0.32134295	          1.50844324	          0.04068198	         -0.06750112	          1.50094414	          0.04374838	         -0.45742944	          1.58984780	          0.57624090	         -0.18452677	          1.46563601	          0.58164650	         -0.51958382	          1.52340853	          0.63077122	         -0.13500935	          1.40579009	          0.62778085	         -0.45596805	          1.51013172	          0.54417938	         -0.12752487	          1.41373491	          0.53944713	         -0.45104808	          1.38269067	          0.15161458	         -0.02895280	          1.49431598	          0.18743709	         -0.40687680	          1.39076912	          0.15718748	         -0.07239866	          1.45333624	          0.18774216	         -0.41419473	
          0.45833334	          1.51899338	          0.88133305	         -0.27082181	         -7.48457336	          0.88766402	          1.27034509	          8.13790703	         -6.60637426	          1.57584643	         -3.20440054	          1.64738154	          0.00000000	          0.00000000	          9.02254295	         -4.97709370	          5.88076782	         -6.13364029	          1.83005917	          0.00000000	          0.00000000	          4.49149132	         -2.90961766	          2.04260039	          1.42892992	          0.82056361	         -0.26844805	          1.42637241	          0.81072015	         -0.19486722	          1.41898239	          0.81419313	         -0.34677550	          1.43130624	          0.43672866	         -0.15994063	          1.42859161	          0.43779367	         -0.38808322	          1.41525900	          0.06479354	         -0.12610520	          1.39753509	          0.06770363	         -0.42291194	          1.51899338	          0.88133305	         -0.27082181	          1.52084327	          0.87874681	         -0.15328735	          1.51714337	          0.88391930	         -0.38835627	          1.32637930	          0.95092988	         -0.23313080	          1.32327676	          0.94879913	         -0.28815743	          1.43381476	          0.44233564	         -0.10025588	          1.43366158	          0.44444352	         -0.44749764	          1.43172562	          0.43573090	         -0.21755959	          1.43529952	          0.44205627	         -0.32381183	          1.39580441	          0.06899744	         -0.08912083	          1.38308036	          0.07259902	         -0.46204117	          1.43016756	          0.06768720	         -0.15627037	          1.40458655	          0.07525709	         -0.39465258	          1.37610292	          0.03358966	         -0.15766661	          1.34688985	          0.04726708	         -0.41193536	          1.51636279	          1.32122862	         -0.26733896	          1.55867958	          1.25332236	         -0.27159786	          1.39621282	          1.38156164	         -0.25857952	          1.52260137	          1.32605386	         -0.21488152	          1.51688182	          1.32315958	         -0.32141465	          1.50842381	          0.04068258	         -0.06749641	          1.50092912	          0.04378180	         -0.45743668	          1.58978128	          0.57615423	         -0.18450664	          1.46561170	          0.58169287	         -0.51958930	          1.52337325	          0.63075852	         -0.13503186	          1.40576649	          0.62774438	         -0.45596933	          1.51012158	          0.54432976	         -0.12747616	          1.41369057	          0.53954548	         -0.45111787	          1.38273764	          0.15158373	         -0.02897211	          1.49422383	          0.18776304	         -0.40701374	          1.39088750	          0.15708633	         -0.07227877	          1.45300937	          0.18843822	         -0.41318044	
